<?xml version="1.0" standalone="no"?>
<!DOCTYPE svg PUBLIC "-//W3C//DTD SVG 20010904//EN"
 "http://www.w3.org/TR/2001/REC-SVG-20010904/DTD/svg10.dtd">
<svg version="1.0" xmlns="http://www.w3.org/2000/svg"
 width="16.000000pt" height="16.000000pt" viewBox="0 0 16.000000 16.000000"
 preserveAspectRatio="xMidYMid meet">
<metadata>
Created by potrace 1.11, written by Peter Selinger 2001-2013
</metadata>
<g transform="translate(0.000000,16.000000) scale(0.002286,-0.002286)"
fill="#000000" stroke="none">
<path d="M5609 6996 c-2 -2 -31 -7 -64 -11 -33 -3 -69 -8 -80 -10 -11 -3 -46
-7 -77 -10 -31 -3 -63 -7 -70 -10 -7 -2 -36 -6 -64 -9 -28 -3 -62 -9 -75 -15
-13 -5 -64 -22 -114 -36 -49 -14 -137 -49 -195 -77 -181 -89 -260 -193 -263
-348 -2 -93 23 -155 68 -170 19 -6 43 -9 52 -6 10 3 43 8 73 11 63 6 197 24
226 29 10 2 44 7 74 11 30 4 64 9 75 11 28 6 96 10 420 29 50 3 284 7 520 10
685 9 785 12 810 29 83 54 97 302 23 408 -23 34 -31 36 -173 53 -27 3 -61 8
-75 10 -14 3 -51 7 -83 10 -32 4 -66 8 -75 10 -9 1 -46 6 -82 10 -36 4 -72 8
-80 10 -38 7 -175 21 -280 29 -36 3 -96 8 -135 12 -170 15 -350 25 -356 20z"/>
<path d="M4938 4915 c-2 -1 -59 -6 -128 -9 -69 -4 -143 -9 -165 -11 -22 -1
-94 -6 -160 -10 -66 -4 -133 -8 -150 -10 -16 -1 -68 -6 -115 -10 -47 -4 -102
-9 -124 -11 -21 -2 -70 -6 -110 -9 -39 -3 -87 -7 -106 -10 -19 -2 -73 -7 -118
-10 -46 -4 -92 -8 -103 -10 -10 -2 -58 -6 -107 -10 -86 -5 -112 -7 -267 -21
-132 -12 -266 -10 -338 4 -61 12 -71 12 -93 -3 -14 -9 -33 -33 -41 -53 -20
-47 -20 -147 0 -193 16 -39 76 -87 153 -120 40 -18 45 -23 40 -47 -5 -25 -9
-53 -22 -157 -2 -22 -7 -51 -9 -65 -3 -14 -7 -45 -10 -70 -3 -25 -15 -106 -26
-180 -11 -74 -22 -146 -24 -160 -6 -45 -17 -115 -21 -135 -2 -11 -6 -40 -9
-65 -3 -25 -10 -70 -15 -100 -5 -30 -11 -73 -14 -95 -18 -131 -13 -125 -94
-96 -159 58 -256 165 -317 351 -34 105 -80 198 -109 221 -50 43 -118 3 -151
-88 -40 -112 -29 -275 31 -503 85 -318 275 -561 501 -641 34 -12 60 -25 58
-28 -2 -4 -6 -56 -10 -116 -4 -61 -8 -111 -10 -113 -1 -1 -40 -5 -86 -8 -46
-2 -95 -7 -109 -9 -44 -9 -310 -19 -454 -17 -124 1 -143 -1 -167 -19 -41 -29
-63 -96 -57 -174 9 -105 67 -169 163 -180 28 -4 66 -10 85 -14 38 -8 354 -6
404 3 17 3 68 8 114 12 l82 6 -7 -158 c-16 -325 -8 -1054 13 -1204 9 -68 14
-105 20 -155 10 -86 45 -248 67 -305 36 -98 64 -123 109 -99 30 15 35 24 53
82 21 71 25 186 30 832 2 319 6 600 9 625 2 25 7 113 11 195 6 129 10 190 14
217 1 3 31 6 69 5 43 0 93 8 139 22 69 20 73 24 83 59 34 124 -19 192 -190
243 l-82 24 7 110 c3 60 9 113 13 117 4 3 45 15 92 26 204 49 335 117 538 282
87 71 225 230 259 300 25 49 24 181 0 237 -31 67 -47 70 -162 28 -191 -69
-496 -156 -629 -180 l-38 -6 7 86 c3 47 8 94 10 103 1 9 6 55 10 102 4 47 8
92 10 100 1 8 6 53 10 100 3 47 8 101 10 120 2 19 6 80 10 135 4 55 8 116 10
135 2 19 6 85 10 145 4 61 9 112 11 114 2 2 72 5 156 6 146 2 324 12 378 20
14 2 66 7 115 10 50 4 101 8 115 10 14 2 63 7 110 10 47 3 103 8 125 11 22 2
69 7 105 9 36 3 76 7 90 10 14 2 50 7 80 10 30 3 107 13 170 21 63 8 133 17
155 19 22 3 49 7 60 9 11 2 49 7 85 11 99 11 489 91 505 105 57 47 48 247 -13
278 -15 8 -535 15 -544 7z"/>
<path d="M2007 4704 c-1 -1 -31 -5 -67 -8 -129 -13 -165 -17 -195 -21 -73 -9
-124 -15 -180 -20 -33 -2 -86 -7 -117 -10 -31 -3 -106 -7 -165 -10 -59 -2
-124 -7 -143 -10 -19 -2 -75 -7 -125 -11 -49 -3 -115 -7 -145 -9 -111 -8 -300
-15 -505 -20 -266 -7 -292 -9 -315 -30 -52 -47 -63 -204 -19 -291 40 -80 67
-89 296 -100 219 -11 713 -4 791 11 19 3 93 8 312 20 52 3 106 8 120 10 14 2
59 7 100 10 41 4 83 9 92 10 9 2 43 6 75 10 32 3 131 19 221 36 168 31 285 69
403 131 36 19 102 47 148 63 87 29 95 36 95 96 0 53 -15 66 -92 74 -80 9 -80
8 -162 30 -36 10 -78 19 -95 22 -16 2 -45 8 -64 13 -28 8 -256 11 -264 4z"/>
</g>
</svg>
