<?xml version="1.0" encoding="UTF-8" standalone="no"?>
<!-- Created with Inkscape (http://www.inkscape.org/) -->

<svg
   xmlns:dc="http://purl.org/dc/elements/1.1/"
   xmlns:cc="http://creativecommons.org/ns#"
   xmlns:rdf="http://www.w3.org/1999/02/22-rdf-syntax-ns#"
   xmlns:svg="http://www.w3.org/2000/svg"
   xmlns="http://www.w3.org/2000/svg"
   xmlns:sodipodi="http://sodipodi.sourceforge.net/DTD/sodipodi-0.dtd"
   xmlns:inkscape="http://www.inkscape.org/namespaces/inkscape"
   version="1.1"
   id="svg3680"
   xml:space="preserve"
   width="817.91998"
   height="1055.84"
   viewBox="0 0 817.91998 1055.84"
   sodipodi:docname="modification-2.svg"
   inkscape:version="0.92.0 r15299"><metadata
     id="metadata3686"><rdf:RDF><cc:Work
         rdf:about=""><dc:format>image/svg+xml</dc:format><dc:type
           rdf:resource="http://purl.org/dc/dcmitype/StillImage" /><dc:title></dc:title></cc:Work></rdf:RDF></metadata><defs
     id="defs3684"><clipPath
       clipPathUnits="userSpaceOnUse"
       id="clipPath3720"><path
         d="m 58.632,719.21 h 103.2 v 11.232 h -103.2 z"
         id="path3718"
         inkscape:connector-curvature="0"
         style="clip-rule:evenodd" /></clipPath><clipPath
       clipPathUnits="userSpaceOnUse"
       id="clipPath3728"><path
         d="m 58.632,719.33 h 103.2 v 11.112 h -103.2 z"
         id="path3726"
         inkscape:connector-curvature="0"
         style="clip-rule:evenodd" /></clipPath><clipPath
       clipPathUnits="userSpaceOnUse"
       id="clipPath3740"><path
         d="m 165.67,719.21 h 44.904 v 11.232 H 165.67 Z"
         id="path3738"
         inkscape:connector-curvature="0"
         style="clip-rule:evenodd" /></clipPath><clipPath
       clipPathUnits="userSpaceOnUse"
       id="clipPath3748"><path
         d="m 165.67,719.33 h 44.904 v 11.112 H 165.67 Z"
         id="path3746"
         inkscape:connector-curvature="0"
         style="clip-rule:evenodd" /></clipPath><clipPath
       clipPathUnits="userSpaceOnUse"
       id="clipPath3760"><path
         d="m 58.632,1.272 h 48.6 V 11.52 h -48.6 z"
         id="path3758"
         inkscape:connector-curvature="0"
         style="clip-rule:evenodd" /></clipPath><clipPath
       clipPathUnits="userSpaceOnUse"
       id="clipPath3768"><path
         d="m 58.632,1.488 h 48.6 V 11.52 h -48.6 z"
         id="path3766"
         inkscape:connector-curvature="0"
         style="clip-rule:evenodd" /></clipPath><clipPath
       clipPathUnits="userSpaceOnUse"
       id="clipPath3776"><path
         d="M 0,1.272 H 555.77 V 11.52 H 0 Z"
         id="path3774"
         inkscape:connector-curvature="0"
         style="clip-rule:evenodd" /></clipPath><clipPath
       clipPathUnits="userSpaceOnUse"
       id="clipPath3784"><path
         d="M 0,1.488 H 555.77 V 11.52 H 0 Z"
         id="path3782"
         inkscape:connector-curvature="0"
         style="clip-rule:evenodd" /></clipPath><clipPath
       clipPathUnits="userSpaceOnUse"
       id="clipPath3796"><path
         d="m 448.61,1.272 h 48.6 V 11.52 h -48.6 z"
         id="path3794"
         inkscape:connector-curvature="0"
         style="clip-rule:evenodd" /></clipPath><clipPath
       clipPathUnits="userSpaceOnUse"
       id="clipPath3804"><path
         d="m 448.61,1.488 h 48.6 V 11.52 h -48.6 z"
         id="path3802"
         inkscape:connector-curvature="0"
         style="clip-rule:evenodd" /></clipPath></defs><sodipodi:namedview
     pagecolor="#ffffff"
     bordercolor="#666666"
     borderopacity="1"
     objecttolerance="10"
     gridtolerance="10"
     guidetolerance="10"
     inkscape:pageopacity="0"
     inkscape:pageshadow="2"
     inkscape:window-width="2736"
     inkscape:window-height="1699"
     id="namedview3682"
     showgrid="false"
     inkscape:zoom="1.3183816"
     inkscape:cx="131.7679"
     inkscape:cy="679.62113"
     inkscape:window-x="-13"
     inkscape:window-y="-13"
     inkscape:window-maximized="1"
     inkscape:current-layer="g3690" /><g
     id="g3688"
     inkscape:groupmode="layer"
     inkscape:label="original"
     transform="matrix(1.3333333,0,0,-1.3333333,0,1055.84)"><g
       id="g3690"><path
         d="m 125.74,523.8 0.09,-0.14 c 0.22,-0.24 0.43,-0.46 0.7,-0.63 l 0.26,-0.19 c 0.39,-0.31 0.89,-0.53 1.37,-0.65 l 0.55,-0.17 0.17,-0.02 0.67,-0.17 c 0.19,-0.05 0.41,-0.07 0.63,-0.09 l 0.76,-0.08 h 0.05 l 1.03,-0.07 h 0.15 l 1.27,-0.05 h 0.07 l 1.63,-0.02 h -0.26 l 1.85,-0.12 0.26,-0.02 2.14,-0.05 v 0 l 2.42,-0.05 v 0 l 2.74,-0.07 h 0.07 l 3.29,-0.03 h 0.02 3.6 -0.02 l 3.96,-0.02 h 0.12 l 4.37,0.05 h -0.05 l 4.85,0.05 h 0.09 l 5.43,0.14 h 0.02 l 5.9,0.17 h 0.08 l 6.24,0.26 h -0.1 l 6.48,0.15 h 0.07 l 7.01,0.24 h 0.07 l 7.18,0.38 h 0.05 l 7.46,0.43 h 0.14 l 7.47,0.67 h -0.05 l 7.56,0.65 c 0.14,0.03 0.29,0.05 0.43,0.07 l 7.23,1.32 0.21,0.05 6.87,1.73 -0.22,-0.05 6.6,1.01 c 0.79,0.12 1.37,0.84 1.32,1.63 -0.02,0.79 -0.67,1.44 -1.49,1.49 l -6.65,0.36 0.17,-0.02 -7.01,0.88 h -0.16 l -7.3,0.63 c -0.17,0.02 -0.34,0.02 -0.5,0.02 l -7.56,-0.19 h -0.12 l -7.47,-0.36 h -0.07 l -7.44,-0.43 h 0.05 l -7.2,-0.34 h 0.05 l -6.99,-0.29 h 0.05 l -6.48,-0.14 h -0.07 l -6.24,-0.26 h 0.05 l -5.93,-0.2 h -0.03 l -5.42,-0.21 h 0.07 l -4.85,-0.12 h -0.04 l -4.37,-0.15 h 0.12 l -3.96,-0.02 h 0.02 -3.6 -0.02 l -3.29,-0.05 h -0.07 l -2.74,-0.05 v 0 l -2.42,-0.04 v 0 l -2.14,-0.05 h 0.24 l -1.85,0.07 h -0.24 l -1.63,-0.05 h -0.07 l -1.27,-0.05 h -0.15 l -1.03,-0.07 h -0.05 l -0.76,-0.07 0.33,0.02 h -0.72 0.05 -0.55 0.02 -0.31 -0.24 l -0.19,-0.02 c -1.54,-0.05 -2.91,-1.01 -3.51,-2.4 -0.6,-1.42 -0.33,-3.05 0.68,-4.2 z"
         style="fill:#808080;fill-opacity:1;fill-rule:nonzero;stroke:none"
         id="path3692"
         inkscape:connector-curvature="0" /><path
         d="m 256.94,432.19 0.34,-0.12 v 0 l 0.34,-0.14 -0.15,0.05 0.34,-0.12 -0.55,0.28 0.43,-0.28 c 0.43,-0.27 0.91,-0.46 1.41,-0.56 l 0.56,-0.09 -0.58,0.14 0.67,-0.21 c 0.34,-0.12 0.65,-0.17 0.99,-0.22 l 0.93,-0.05 0.22,-0.02 1.17,-0.03 h 0.1 l 1.44,-0.02 -0.48,0.05 1.75,-0.22 0.05,-0.02 2.26,-0.24 c 0.16,0 0.36,-0.03 0.55,0 l 2.61,0.05 h -0.07 l 3.1,0.02 h -0.07 l 3.5,-0.02 h 0.12 l 3.6,0.07 h 0.1 l 4.08,0.19 v 0 l 4.27,0.17 h 0.02 l 4.47,0.24 h 0.02 l 4.75,0.29 h 0.15 l 4.53,0.43 h 0.05 l 4.44,0.45 c 0.14,0.03 0.26,0.03 0.38,0.08 l 4.4,0.91 c 1.39,0.29 2.37,1.51 2.32,2.95 -0.07,1.42 -1.1,2.59 -2.52,2.78 l -4.44,0.63 c -0.14,0 -0.28,0.02 -0.43,0.02 l -4.49,0.1 h -0.02 l -4.54,0.07 h -0.14 l -4.75,-0.07 h -0.03 l -4.44,-0.07 h -0.12 l -4.27,-0.2 -0.02,-0.02 -4.06,-0.17 h 0.1 l -3.6,-0.07 h 0.07 l -3.5,-0.02 h -0.15 l -3.09,-0.12 -0.05,-0.03 -2.62,-0.14 h 0.46 l -2.23,0.12 h 0.12 l -1.78,0.14 c -0.12,0.03 -0.24,0.03 -0.36,0.03 l -1.44,-0.03 h -0.1 l -1.17,-0.02 -0.22,-0.03 -0.93,-0.07 0.79,-0.02 -0.72,0.09 c -0.36,0.05 -0.77,0.03 -1.15,-0.02 l -0.56,-0.12 1.23,0.05 -0.53,0.05 c -0.67,0.09 -1.37,0 -1.99,-0.27 l -0.34,-0.14 0.15,0.05 -0.34,-0.12 v 0 l -0.34,-0.12 c -1.29,-0.51 -2.16,-1.76 -2.16,-3.12 0,-1.42 0.87,-2.64 2.16,-3.15 z"
         style="fill:#808080;fill-opacity:1;fill-rule:nonzero;stroke:none"
         id="path3694"
         inkscape:connector-curvature="0" /><path
         d="m 260.86,435.53 -0.29,0.65 c -0.05,0.14 -0.15,0.26 -0.24,0.4 l -0.24,0.34 c -0.65,0.89 -1.78,1.27 -2.83,0.98 -1.06,-0.26 -1.83,-1.15 -1.97,-2.23 -0.15,-1.08 0.38,-2.13 1.32,-2.69 0.96,-0.52 2.13,-0.43 3,0.24 l 0.31,0.27 -2.11,-0.36 0.65,-0.24 c 0.74,-0.24 1.53,-0.05 2.06,0.53 0.53,0.57 0.67,1.41 0.34,2.11 z"
         style="fill:#808080;fill-opacity:1;fill-rule:nonzero;stroke:none"
         id="path3696"
         inkscape:connector-curvature="0" /><path
         d="m 356.62,535.32 v -0.14 c 0.16,-1.4 1.12,-2.55 2.49,-2.93 l 0.43,-0.12 0.1,-0.03 0.72,-0.19 -0.46,0.17 0.94,-0.38 0.24,-0.1 1.1,-0.36 0.32,-0.1 1.82,-0.43 c 0.14,-0.05 0.31,-0.07 0.46,-0.09 l 2.4,-0.32 0.26,-0.02 3.38,-0.22 h -0.02 l 4.85,-0.31 0.31,-0.02 6.48,0.02 h 0.05 l 8.45,0.05 h 0.12 l 10.2,0.38 h 0.02 l 12.55,0.53 v 0 l 14.16,0.6 h 0.05 l 15.62,0.89 h 0.03 l 17.16,1.1 h 0.12 l 18.48,1.8 c 1.77,0.17 3.09,1.68 3,3.46 -0.07,1.75 -1.54,3.17 -3.29,3.17 l -18.58,0.09 h -0.12 l -17.18,-0.5 v 0 l -15.65,-0.48 h -0.07 l -14.14,-0.6 v 0 l -12.52,-0.53 h -0.05 l -10.2,-0.5 0.09,0.02 -8.42,-0.26 h -0.12 l -6.48,-0.34 h 0.26 l -4.87,0.03 h -0.09 l -3.39,-0.05 h 0.17 l -2.42,0.02 h 0.38 l -1.87,0.22 v 0 l -1.18,0.14 0.05,-0.02 -1.01,0.14 c -0.21,0.03 -0.43,0.03 -0.67,0 l -0.77,-0.02 c -0.24,0 -0.5,-0.05 -0.77,-0.12 l -0.43,-0.12 c -0.55,-0.17 -1.05,-0.46 -1.44,-0.84 l -0.12,-0.1 c -0.69,-0.67 -1.05,-1.63 -0.93,-2.59 z"
         style="fill:#808080;fill-opacity:1;fill-rule:nonzero;stroke:none"
         id="path3698"
         inkscape:connector-curvature="0" /><path
         d="m 361.99,535.8 c 0,-1.51 -1.22,-2.74 -2.73,-2.74 -1.52,0 -2.74,1.23 -2.74,2.74 0,1.51 1.22,2.74 2.74,2.74 1.51,0 2.73,-1.23 2.73,-2.74 z"
         style="fill:#808080;fill-opacity:1;fill-rule:evenodd;stroke:none"
         id="path3700"
         inkscape:connector-curvature="0" /><path
         d="m 326.95,433.34 0.27,-0.14 -0.92,0.79 0.08,-0.09 c 0.19,-0.27 0.43,-0.51 0.72,-0.7 l 0.19,-0.14 c 0.31,-0.22 0.67,-0.39 1.03,-0.51 l 0.36,-0.09 c 0.17,-0.05 0.29,-0.08 0.46,-0.1 l 0.48,-0.07 c 0.12,-0.03 0.26,-0.05 0.38,-0.05 l 0.89,-0.02 -0.19,0.02 0.98,-0.1 h 0.05 l 1.15,-0.09 h 0.1 l 1.27,-0.05 h 0.31 l 1.66,0.05 0.16,0.02 1.83,0.17 0.29,0.05 1.87,0.31 -0.24,-0.02 2.28,0.21 c 1.08,0.1 1.94,0.94 2.11,1.99 0.17,1.06 -0.43,2.12 -1.42,2.55 l -2.11,0.89 c -0.21,0.07 -0.41,0.14 -0.62,0.19 l -1.87,0.31 h -0.03 l -1.8,0.34 c -0.17,0.02 -0.31,0.02 -0.45,0.02 l -1.66,0.1 0.29,-0.05 -1.27,0.17 h -0.22 l -1.15,0.07 h 0.05 l -0.99,0.07 c -0.14,0 -0.26,0.02 -0.38,0 L 330,439.42 c -0.12,0 -0.26,0 -0.38,-0.03 l -0.48,-0.07 c -0.17,-0.02 -0.29,-0.07 -0.46,-0.12 l -0.36,-0.07 c -0.36,-0.12 -0.72,-0.29 -1.03,-0.53 l -0.19,-0.12 c -0.29,-0.19 -0.53,-0.43 -0.72,-0.72 l -0.08,-0.07 v -0.03 l -0.16,-0.21 c -0.48,-0.65 -0.68,-1.47 -0.51,-2.23 0.15,-0.8 0.63,-1.47 1.32,-1.88 z"
         style="fill:#808080;fill-opacity:1;fill-rule:nonzero;stroke:none"
         id="path3702"
         inkscape:connector-curvature="0" /><path
         d="m 507.43,612.14 -0.12,0.27 c -0.19,0.29 -0.38,0.57 -0.67,0.77 l -0.12,0.12 c -0.12,0.07 -0.24,0.16 -0.36,0.21 l -0.19,0.12 c -0.24,0.12 -0.46,0.19 -0.7,0.24 l -0.26,0.07 1.99,-1.75 -0.12,0.36 c -0.62,1.75 -2.45,2.76 -4.25,2.38 -1.82,-0.39 -3.07,-2.04 -2.95,-3.91 0.12,-1.85 1.61,-3.32 3.46,-3.44 l 0.45,-0.04 h 0.05 l 0.77,-0.03 c 0.24,-0.02 0.48,-0.02 0.72,0 l 1.8,0.22 -0.34,-0.03 3.63,0.15 h 0.12 l 6.81,0.41 h 0.07 l 11.84,0.88 -0.27,-0.04 19.32,0.52 h -0.12 l 26.69,0.17 h 0.02 l 29.86,0.27 c 2.76,0 5.02,2.23 5.09,4.99 0.07,2.76 -2.04,5.06 -4.8,5.21 l -29.83,1.84 h -0.12 l -26.69,1.04 c -0.24,0 -0.46,0 -0.7,-0.03 l -19.32,-1.22 c -0.14,0 -0.33,-0.03 -0.5,-0.07 l -11.76,-1.71 c -0.19,-0.02 -0.36,-0.05 -0.55,-0.12 l -6.65,-1.61 c -0.17,-0.04 -0.34,-0.09 -0.48,-0.16 l -3.43,-1.2 c -0.36,-0.12 -0.7,-0.29 -0.99,-0.48 l -1.53,-0.99 c -0.39,-0.24 -0.72,-0.5 -0.99,-0.86 l -0.5,-0.58 c -0.12,-0.17 -0.29,-0.36 -0.36,-0.53 l -0.24,-0.4 c -0.72,-1.23 -0.7,-2.72 0.07,-3.92 0.77,-1.17 2.14,-1.84 3.53,-1.65 1.39,0.14 2.59,1.08 3.07,2.4 l 0.12,0.36 -0.74,-1.08 0.21,0.17 -0.5,-0.36 0.19,0.12 c 0.12,0.07 0.24,0.12 0.36,0.21 l 0.12,0.1 c 0.48,0.38 0.82,0.93 0.89,1.53 l 0.05,0.32 c 0.02,0.24 -0.03,0.52 -0.15,0.76 z"
         style="fill:#808080;fill-opacity:1;fill-rule:nonzero;stroke:none"
         id="path3704"
         inkscape:connector-curvature="0" /><path
         d="m 322.51,396.36 0.1,0.34 0.02,0.24 0.1,0.48 0.02,0.19 0.07,0.65 0.03,0.09 0.07,0.84 -0.02,-0.12 0.14,1.25 c 0.05,0.12 0.05,0.26 0.05,0.41 l 0.07,1.63 v 0.19 l 0.05,2.16 v 0.19 l -0.05,3.1 v -0.05 l -0.05,4.13 v -0.19 l 0.1,5.54 v -0.14 l 0.31,7.99 -0.02,-0.43 1.03,10.01 v -0.17 l 1.56,12.45 -0.07,-0.38 2.59,14.33 -0.03,-0.15 3.22,15.77 0.05,0.31 2.42,15.68 c 0.39,2.64 -1.29,5.13 -3.91,5.68 -2.59,0.6 -5.18,-0.93 -5.95,-3.48 l -4.49,-15.21 v 0.05 l -4.73,-15.39 c -0.07,-0.21 -0.12,-0.45 -0.17,-0.67 l -2.88,-14.28 c -0.02,-0.14 -0.04,-0.26 -0.07,-0.41 l -1.73,-12.43 -0.04,-0.36 -0.87,-10.03 c -0.02,-0.17 -0.05,-0.34 -0.05,-0.53 l -0.07,-7.99 c 0,-0.17 0,-0.31 0,-0.48 l 0.31,-5.52 c 0.03,-0.17 0.05,-0.31 0.05,-0.48 l 0.53,-4.11 c 0.02,-0.21 0.07,-0.45 0.12,-0.67 l 0.72,-3 c 0.02,-0.14 0.07,-0.26 0.1,-0.38 l 0.62,-2.09 c 0.07,-0.17 0.12,-0.34 0.19,-0.5 l 0.63,-1.49 0.02,-0.07 0.48,-1.16 c 0.12,-0.26 0.24,-0.5 0.38,-0.72 l 0.46,-0.72 c 0.07,-0.12 0.14,-0.24 0.22,-0.33 l 0.38,-0.53 -0.22,0.34 0.27,-0.41 c 0.17,-0.29 0.36,-0.53 0.6,-0.77 l 0.21,-0.24 c 1.08,-1.1 2.69,-1.51 4.18,-1.1 1.49,0.43 2.64,1.63 2.95,3.14 z"
         style="fill:#ed1c24;fill-opacity:1;fill-rule:nonzero;stroke:none"
         id="path3706"
         inkscape:connector-curvature="0" /><path
         d="m 287.74,487.75 -0.08,-0.29 c -0.24,-0.98 -0.21,-2.01 0.05,-3 l 0.15,-0.48 v -0.07 l 0.16,-0.55 c 0.1,-0.34 0.22,-0.65 0.36,-0.98 l 0.39,-0.82 -0.12,0.34 0.38,-0.99 c 0.1,-0.21 0.19,-0.41 0.27,-0.6 l 0.64,-1.17 0.08,-0.15 0.84,-1.53 c 0.16,-0.24 0.33,-0.51 0.52,-0.75 l 1.16,-1.56 c 0.21,-0.29 0.45,-0.55 0.72,-0.81 l 1.77,-1.68 c 0.19,-0.2 0.39,-0.36 0.6,-0.53 l 2.16,-1.63 c 0.24,-0.2 0.48,-0.36 0.72,-0.48 l 2.76,-1.64 c 0.27,-0.16 0.53,-0.28 0.82,-0.4 l 3.45,-1.49 c 0.29,-0.12 0.6,-0.24 0.92,-0.31 l 4.12,-1.16 c 0.29,-0.09 0.53,-0.14 0.82,-0.19 l 4.92,-0.81 c 0.22,-0.03 0.41,-0.05 0.62,-0.08 l 5.74,-0.45 c 0.24,-0.03 0.5,-0.03 0.77,-0.03 l 6.67,0.17 c 0.24,0 0.46,0.03 0.7,0.05 l 7.15,0.82 c 0.14,0 0.29,0.04 0.43,0.07 l 7.7,1.34 c 0.34,0.07 0.65,0.15 0.96,0.24 l 7.95,2.59 0.33,0.12 7.44,2.91 c 0.32,0.09 0.6,0.24 0.87,0.41 l 6.5,3.98 c 1.66,1.01 2.35,3.02 1.66,4.82 -0.67,1.8 -2.55,2.84 -4.42,2.52 l -7.51,-1.36 0.14,0.04 -7.89,-1.17 h 0.02 l -8.28,-1.2 0.22,0.02 -7.8,-0.89 0.33,0.03 -7.2,-0.53 0.32,0.02 -6.7,-0.19 0.77,-0.02 -5.74,0.41 0.53,-0.05 -4.94,0.74 0.72,-0.17 -4.18,1.06 0.72,-0.22 -3.53,1.3 0.79,-0.36 -2.83,1.46 0.58,-0.33 -2.31,1.46 0.6,-0.41 -1.92,1.54 0.65,-0.58 -1.37,1.37 0.58,-0.67 -1.03,1.42 0.09,-0.15 -0.76,1.08 0.19,-0.29 -0.58,0.89 c -0.12,0.24 -0.29,0.48 -0.45,0.67 l -0.6,0.7 -0.15,0.22 -0.41,0.4 c -0.19,0.24 -0.43,0.48 -0.67,0.68 l -0.38,0.31 0.21,-0.19 -0.21,0.19 c -1.54,1.41 -3.7,1.89 -5.67,1.27 -1.99,-0.62 -3.52,-2.21 -4,-4.25 z"
         style="fill:#ed1c24;fill-opacity:1;fill-rule:nonzero;stroke:none"
         id="path3708"
         inkscape:connector-curvature="0" /><path
         d="m 297.67,484.06 c 0,-1.56 -1.27,-2.86 -2.85,-2.86 -1.59,0 -2.86,1.3 -2.86,2.86 0,1.6 1.27,2.88 2.86,2.88 1.58,0 2.85,-1.28 2.85,-2.88 z"
         style="fill:#ed1c24;fill-opacity:1;fill-rule:evenodd;stroke:none"
         id="path3710"
         inkscape:connector-curvature="0" /><path
         d="m 293.42,481.87 0.53,-0.17 -0.12,0.05 0.22,-0.09 c 1.05,-0.46 2.3,-0.03 2.85,0.98 0.56,1.03 0.22,2.3 -0.74,2.95 -0.96,0.63 -2.26,0.43 -2.98,-0.48 l -0.16,-0.19 1.46,0.74 -0.55,-0.02 c -0.91,-0.05 -1.66,-0.74 -1.8,-1.66 -0.12,-0.91 0.41,-1.8 1.29,-2.11 z"
         style="fill:#ed1c24;fill-opacity:1;fill-rule:nonzero;stroke:none"
         id="path3712"
         inkscape:connector-curvature="0" /></g><g
       id="g3714"><g
         id="g3716"
         clip-path="url(#clipPath3720)"><g
           id="g3722"><g
             id="g3724"
             clip-path="url(#clipPath3728)"><text
               transform="matrix(1,0,0,-1,65.376,721.82)"
               style="font-variant:normal;font-weight:normal;font-size:9.04800034px;font-family:Calibri;-inkscape-font-specification:Calibri;writing-mode:lr-tb;fill:#767676;fill-opacity:1;fill-rule:nonzero;stroke:none"
               id="text3732"><tspan
                 x="0 4.1530318 8.9394236 13.734864 18.530304 22.891439 27.035423 29.333616 31.30608 34.138103 38.499241 43.294682 48.090118 52.451256 55.609009 59.762039 61.734505 66.321838 68.610985 70.692024 75.279358 79.866699 84.454033"
                 y="0"
                 sodipodi:role="line"
                 id="tspan3730">Sunday, January 8, 2017</tspan></text>
</g></g></g></g><g
       id="g3734"><g
         id="g3736"
         clip-path="url(#clipPath3740)"><g
           id="g3742"><g
             id="g3744"
             clip-path="url(#clipPath3748)"><text
               transform="matrix(1,0,0,-1,172.44,721.82)"
               style="font-variant:normal;font-weight:normal;font-size:9.04800034px;font-family:Calibri;-inkscape-font-specification:Calibri;writing-mode:lr-tb;fill:#767676;fill-opacity:1;fill-rule:nonzero;stroke:none"
               id="text3752"><tspan
                 x="0 4.5601921 6.939816 11.500008 16.0602 18.213623 22.891439"
                 y="0"
                 sodipodi:role="line"
                 id="tspan3750">9:33 PM</tspan></text>
</g></g></g></g><g
       id="g3754"><g
         id="g3756"
         clip-path="url(#clipPath3760)"><g
           id="g3762"><g
             id="g3764"
             clip-path="url(#clipPath3768)" /></g></g></g><g
       id="g3770"><g
         id="g3772"
         clip-path="url(#clipPath3776)"><g
           id="g3778"><g
             id="g3780"
             clip-path="url(#clipPath3784)"><text
               transform="matrix(1,0,0,-1,254.88,3.456)"
               style="font-variant:normal;font-weight:normal;font-size:9.04800034px;font-family:'Times New Roman';-inkscape-font-specification:TimesNewRomanPSMT;writing-mode:lr-tb;fill:#000000;fill-opacity:1;fill-rule:nonzero;stroke:none"
               id="text3788"><tspan
                 x="0 5.4468961 10.025184 14.485848 19.064137 21.452808 26.55588 30.573193 35.051952 39.069263 41.35841"
                 y="0"
                 sodipodi:role="line"
                 id="tspan3786">Logo Page 1</tspan></text>
</g></g></g></g><g
       id="g3790"><g
         id="g3792"
         clip-path="url(#clipPath3796)"><g
           id="g3798"><g
             id="g3800"
             clip-path="url(#clipPath3804)" /></g></g></g></g></svg>