<?xml version="1.0" encoding="UTF-8" standalone="no"?>
<!-- Created with Inkscape (http://www.inkscape.org/) -->

<svg
   xmlns:osb="http://www.openswatchbook.org/uri/2009/osb"
   xmlns:dc="http://purl.org/dc/elements/1.1/"
   xmlns:cc="http://creativecommons.org/ns#"
   xmlns:rdf="http://www.w3.org/1999/02/22-rdf-syntax-ns#"
   xmlns:svg="http://www.w3.org/2000/svg"
   xmlns="http://www.w3.org/2000/svg"
   xmlns:sodipodi="http://sodipodi.sourceforge.net/DTD/sodipodi-0.dtd"
   xmlns:inkscape="http://www.inkscape.org/namespaces/inkscape"
   version="1.1"
   id="svg3680"
   xml:space="preserve"
   width="32.000107"
   height="31.999756"
   viewBox="0 0 32.000107 31.999758"
   sodipodi:docname="modification-5.svg"
   inkscape:version="0.92.0 r15299"><metadata
     id="metadata3686"><rdf:RDF><cc:Work
         rdf:about=""><dc:format>image/svg+xml</dc:format><dc:type
           rdf:resource="http://purl.org/dc/dcmitype/StillImage" /><dc:title></dc:title></cc:Work></rdf:RDF></metadata><defs
     id="defs3684"><linearGradient
       id="linearGradient4902"
       osb:paint="gradient"><stop
         style="stop-color:#000000;stop-opacity:1;"
         offset="0"
         id="stop4898" /><stop
         style="stop-color:#000000;stop-opacity:0;"
         offset="1"
         id="stop4900" /></linearGradient><clipPath
       clipPathUnits="userSpaceOnUse"
       id="clipPath3720"><path
         d="m 58.632,719.21 h 103.2 v 11.232 h -103.2 z"
         id="path3718"
         inkscape:connector-curvature="0"
         style="clip-rule:evenodd" /></clipPath><clipPath
       clipPathUnits="userSpaceOnUse"
       id="clipPath3728"><path
         d="m 58.632,719.33 h 103.2 v 11.112 h -103.2 z"
         id="path3726"
         inkscape:connector-curvature="0"
         style="clip-rule:evenodd" /></clipPath><clipPath
       clipPathUnits="userSpaceOnUse"
       id="clipPath3740"><path
         d="m 165.67,719.21 h 44.904 v 11.232 H 165.67 Z"
         id="path3738"
         inkscape:connector-curvature="0"
         style="clip-rule:evenodd" /></clipPath><clipPath
       clipPathUnits="userSpaceOnUse"
       id="clipPath3748"><path
         d="m 165.67,719.33 h 44.904 v 11.112 H 165.67 Z"
         id="path3746"
         inkscape:connector-curvature="0"
         style="clip-rule:evenodd" /></clipPath><clipPath
       clipPathUnits="userSpaceOnUse"
       id="clipPath3760"><path
         d="m 58.632,1.272 h 48.6 V 11.52 h -48.6 z"
         id="path3758"
         inkscape:connector-curvature="0"
         style="clip-rule:evenodd" /></clipPath><clipPath
       clipPathUnits="userSpaceOnUse"
       id="clipPath3768"><path
         d="m 58.632,1.488 h 48.6 V 11.52 h -48.6 z"
         id="path3766"
         inkscape:connector-curvature="0"
         style="clip-rule:evenodd" /></clipPath><clipPath
       clipPathUnits="userSpaceOnUse"
       id="clipPath3776"><path
         d="M 0,1.272 H 555.77 V 11.52 H 0 Z"
         id="path3774"
         inkscape:connector-curvature="0"
         style="clip-rule:evenodd" /></clipPath><clipPath
       clipPathUnits="userSpaceOnUse"
       id="clipPath3784"><path
         d="M 0,1.488 H 555.77 V 11.52 H 0 Z"
         id="path3782"
         inkscape:connector-curvature="0"
         style="clip-rule:evenodd" /></clipPath><clipPath
       clipPathUnits="userSpaceOnUse"
       id="clipPath3796"><path
         d="m 448.61,1.272 h 48.6 V 11.52 h -48.6 z"
         id="path3794"
         inkscape:connector-curvature="0"
         style="clip-rule:evenodd" /></clipPath><clipPath
       clipPathUnits="userSpaceOnUse"
       id="clipPath3804"><path
         d="m 448.61,1.488 h 48.6 V 11.52 h -48.6 z"
         id="path3802"
         inkscape:connector-curvature="0"
         style="clip-rule:evenodd" /></clipPath></defs><sodipodi:namedview
     pagecolor="#ffffff"
     bordercolor="#666666"
     borderopacity="1"
     objecttolerance="10"
     gridtolerance="10"
     guidetolerance="10"
     inkscape:pageopacity="0"
     inkscape:pageshadow="2"
     inkscape:window-width="2736"
     inkscape:window-height="1699"
     id="namedview3682"
     showgrid="false"
     inkscape:zoom="1"
     inkscape:cx="-176.4991"
     inkscape:cy="9.0139865"
     inkscape:window-x="-13"
     inkscape:window-y="-13"
     inkscape:window-maximized="1"
     inkscape:current-layer="g3690" /><g
     id="g3688"
     inkscape:groupmode="layer"
     inkscape:label="original"
     transform="matrix(1.3333333,0,0,-1.3333333,-471.52213,663.9651)"
     style="display:inline"><g
       id="g3690"
       style="display:inline"><path
         d="m 353.71039,488.6329 0.008,-0.0218 c 0.016,-0.0372 0.032,-0.0712 0.0522,-0.0976 l 0.02,-0.0296 c 0.029,-0.048 0.0666,-0.0822 0.10243,-0.10082 l 0.041,-0.0264 0.012,-0.002 0.0502,-0.0264 c 0.014,-0.008 0.0306,-0.01 0.0472,-0.014 l 0.0568,-0.012 h 0.004 l 0.077,-0.01 h 0.012 l 0.095,-0.008 h 0.004 l 0.12184,-0.002 h -0.02 l 0.13825,-0.018 0.02,-0.004 0.16005,-0.008 v 0 l 0.18086,-0.008 v 0 l 0.20483,-0.01 h 0.004 l 0.24593,-0.004 h 10e-4 0.26909 -10e-4 l 0.296,-0.004 h 0.01 l 0.32667,0.008 h -0.004 l 0.36252,0.008 h 0.008 l 0.40588,0.0218 h 0.002 l 0.44103,0.0264 h 0.006 l 0.46641,0.0404 h -0.008 l 0.48439,0.0232 h 0.004 l 0.524,0.0372 h 0.004 l 0.5367,0.0588 h 0.004 l 0.55764,0.0668 h 0.01 l 0.55837,0.10402 h -0.004 l 0.56511,0.10081 c 0.01,0.004 0.0218,0.008 0.0322,0.01 l 0.54045,0.20477 0.016,0.008 0.51352,0.26837 -0.016,-0.008 0.49335,0.15662 c 0.059,0.018 0.10244,0.13022 0.0986,0.25288 -0.002,0.12261 -0.0502,0.22339 -0.11144,0.23115 l -0.49709,0.0558 0.012,-0.004 -0.524,0.13641 h -0.012 l -0.54565,0.0978 c -0.012,0.004 -0.0254,0.004 -0.0374,0.004 l -0.56511,-0.0294 h -0.008 l -0.55837,-0.0558 h -0.004 l -0.55613,-0.0666 h 0.004 l -0.53818,-0.0528 h 0.004 l -0.52252,-0.045 h 0.004 l -0.48436,-0.0218 h -0.006 l -0.46646,-0.0404 h 0.004 l -0.44328,-0.031 h -0.002 l -0.40514,-0.0326 h 0.004 l -0.36253,-0.018 h -0.002 l -0.32665,-0.0234 h 0.01 l -0.29602,-0.002 h 0.002 -0.26909 -10e-4 l -0.24592,-0.008 h -0.004 l -0.20483,-0.008 v 0 l -0.18086,-0.006 v 0 l -0.16005,-0.008 h 0.018 l -0.13824,0.01 h -0.018 l -0.12184,-0.008 h -0.004 l -0.095,-0.008 h -0.012 l -0.077,-0.01 h -0.004 l -0.0568,-0.01 0.0246,0.004 h -0.0538 0.004 -0.041 0.002 -0.0232 -0.018 l -0.014,-0.004 c -0.11504,-0.008 -0.21753,-0.15662 -0.26237,-0.37231 -0.0448,-0.22028 -0.0246,-0.47314 0.0508,-0.65154 z"
         style="display:inline;fill:#808080;fill-opacity:1;fill-rule:nonzero;stroke:none;stroke-width:0.10768485"
         id="path3692"
         inkscape:connector-curvature="0" /><path
         d="m 360.23692,480.78076 0.0254,-0.018 v 0 l 0.0254,-0.0218 -0.012,0.008 0.0254,-0.018 -0.041,0.0434 0.032,-0.0434 c 0.0322,-0.042 0.068,-0.0714 0.10544,-0.087 l 0.0418,-0.014 -0.0434,0.0218 0.05,-0.0326 c 0.0254,-0.018 0.0486,-0.0264 0.074,-0.034 l 0.0694,-0.008 0.016,-0.004 0.0874,-0.004 h 0.006 l 0.10764,-0.002 -0.0358,0.008 0.13085,-0.034 0.004,-0.004 0.16886,-0.0372 c 0.012,0 0.027,-0.004 0.0412,0 l 0.19507,0.008 h -0.004 l 0.23174,0.002 h -0.004 l 0.26162,-0.002 h 0.01 l 0.26909,0.01 h 0.006 l 0.30499,0.0294 v 0 l 0.31917,0.0264 h 10e-4 l 0.33413,0.0372 h 10e-4 l 0.35508,0.045 h 0.012 l 0.33859,0.0666 h 0.004 l 0.3319,0.0698 c 0.01,0.004 0.02,0.004 0.0284,0.012 l 0.32889,0.14122 c 0.10383,0.045 0.17706,0.23425 0.17346,0.45764 -0.004,0.22029 -0.0822,0.40179 -0.18847,0.43126 l -0.33189,0.0978 c -0.01,0 -0.0208,0.004 -0.0322,0.004 l -0.33562,0.016 h -10e-4 l -0.33937,0.01 h -0.01 l -0.35506,-0.01 h -0.002 l -0.33189,-0.01 h -0.01 l -0.31919,-0.031 -10e-4,-0.004 -0.30349,-0.0264 h 0.006 l -0.26909,-0.01 h 0.006 l -0.26163,-0.004 h -0.012 l -0.23098,-0.018 -0.004,-0.004 -0.19587,-0.0218 h 0.0344 l -0.16666,0.018 h 0.01 l -0.13304,0.0218 c -0.008,0.004 -0.018,0.004 -0.0268,0.004 l -0.10764,-0.004 h -0.006 l -0.0874,-0.004 -0.016,-0.004 -0.0694,-0.01 0.059,-0.002 -0.0538,0.014 c -0.0268,0.008 -0.0576,0.004 -0.086,-0.002 l -0.0418,-0.018 0.092,0.008 -0.0396,0.008 c -0.0502,0.014 -0.10243,0 -0.14885,-0.0418 l -0.0254,-0.0218 0.012,0.008 -0.0254,-0.018 v 0 l -0.0254,-0.018 c -0.0964,-0.079 -0.16145,-0.27304 -0.16145,-0.48401 0,-0.22028 0.065,-0.40955 0.16145,-0.48866 z"
         style="display:inline;fill:#808080;fill-opacity:1;fill-rule:nonzero;stroke:none;stroke-width:0.10768485"
         id="path3694"
         inkscape:connector-curvature="0" /><path
         d="m 363.22344,489.83672 v -0.0218 c 0.012,-0.21718 0.0838,-0.39559 0.18607,-0.45454 l 0.0322,-0.018 0.006,-0.004 0.0538,-0.0294 -0.0344,0.0264 0.0702,-0.0588 0.018,-0.016 0.0822,-0.0558 0.024,-0.016 0.13605,-0.0666 c 0.01,-0.008 0.0232,-0.01 0.0344,-0.014 l 0.17946,-0.0496 0.02,-0.004 0.25265,-0.034 h -10e-4 l 0.36254,-0.048 0.0232,-0.004 0.48436,0.004 h 0.004 l 0.63164,0.008 h 0.01 l 0.76244,0.0588 h 0.002 l 0.9381,0.0822 v 0 l 1.05846,0.093 h 0.004 l 1.16758,0.13802 h 0.002 l 1.2827,0.17063 h 0.01 l 1.38137,0.27923 c 0.13225,0.0264 0.23098,0.26062 0.22426,0.53675 -0.004,0.27148 -0.11504,0.49177 -0.24594,0.49177 l -1.38884,0.014 h -0.01 l -1.2842,-0.0776 v 0 l -1.16982,-0.0746 h -0.004 l -1.05696,-0.093 v 0 l -0.93586,-0.0822 h -0.004 l -0.76244,-0.0776 0.006,0.004 -0.6294,-0.0404 h -0.01 l -0.48437,-0.0528 h 0.02 l -0.36403,0.004 h -0.008 l -0.25339,-0.008 h 0.012 l -0.18086,0.002 h 0.0284 l -0.13985,0.0342 v 0 l -0.0882,0.0216 0.004,-0.002 -0.0756,0.0218 c -0.016,0.004 -0.0322,0.004 -0.0502,0 l -0.0576,-0.004 c -0.018,0 -0.0374,-0.008 -0.0576,-0.018 l -0.0322,-0.018 c -0.0412,-0.0264 -0.0784,-0.0712 -0.10764,-0.13022 l -0.01,-0.016 c -0.0516,-0.10401 -0.0784,-0.25287 -0.0696,-0.40181 z"
         style="display:inline;fill:#808080;fill-opacity:1;fill-rule:nonzero;stroke:none;stroke-width:0.10768485"
         id="path3698"
         inkscape:connector-curvature="0" /><path
         d="m 363.81176,480.91462 0.0202,-0.0218 -0.0688,0.12262 0.006,-0.014 c 0.014,-0.042 0.0322,-0.0792 0.0538,-0.10862 l 0.014,-0.0218 c 0.0232,-0.0342 0.0502,-0.0606 0.077,-0.0792 l 0.0268,-0.014 c 0.012,-0.008 0.0218,-0.012 0.0344,-0.016 l 0.036,-0.01 c 0.01,-0.004 0.02,-0.008 0.0284,-0.008 l 0.0666,-0.004 -0.014,0.004 0.0732,-0.016 h 0.004 l 0.086,-0.014 h 0.006 l 0.095,-0.008 h 0.0232 l 0.12404,0.008 0.012,0.004 0.13684,0.0264 0.0218,0.008 0.13985,0.048 -0.018,-0.004 0.17046,0.0326 c 0.0806,0.016 0.14505,0.14582 0.15765,0.30873 0.012,0.16442 -0.0322,0.32888 -0.10603,0.39559 l -0.15766,0.13802 c -0.016,0.01 -0.0306,0.0218 -0.0462,0.0294 l -0.13985,0.048 h -0.002 l -0.13465,0.0528 c -0.012,0.002 -0.0232,0.002 -0.0336,0.002 l -0.12404,0.016 0.0218,-0.008 -0.095,0.0264 h -0.016 l -0.0858,0.01 h 0.004 l -0.074,0.01 c -0.01,0 -0.02,0.004 -0.0284,0 l -0.0666,-0.002 c -0.01,0 -0.02,0 -0.0284,-0.004 l -0.0358,-0.01 c -0.012,-0.004 -0.0218,-0.01 -0.0344,-0.018 l -0.0268,-0.01 c -0.027,-0.018 -0.0538,-0.045 -0.077,-0.0822 l -0.014,-0.018 c -0.0218,-0.0294 -0.0396,-0.0666 -0.0538,-0.11161 l -0.006,-0.01 v -0.004 l -0.012,-0.0326 c -0.0358,-0.10081 -0.0508,-0.22803 -0.038,-0.34594 0.012,-0.12402 0.0472,-0.22803 0.0986,-0.29164 z"
         style="display:inline;fill:#808080;fill-opacity:1;fill-rule:nonzero;stroke:none;stroke-width:0.10768485"
         id="path3702"
         inkscape:connector-curvature="0" /><path
         d="m 370.00692,496.26969 -0.01,0.0418 c -0.014,0.045 -0.0284,0.0884 -0.05,0.11942 l -0.01,0.018 c -0.01,0.01 -0.018,0.0248 -0.027,0.0326 l -0.014,0.018 c -0.018,0.018 -0.0344,0.0296 -0.0524,0.0372 l -0.02,0.01 0.14865,-0.27148 -0.01,0.0558 c -0.0462,0.27147 -0.18306,0.42815 -0.31769,0.36921 -0.13605,-0.0606 -0.22948,-0.31647 -0.2205,-0.60656 0.01,-0.28698 0.12025,-0.51503 0.25863,-0.53366 l 0.0336,-0.006 h 0.004 l 0.0576,-0.004 c 0.018,-0.002 0.0358,-0.002 0.0538,0 l 0.13445,0.0342 -0.0254,-0.006 0.27135,0.0234 h 0.008 l 0.50903,0.0636 h 0.004 l 0.88504,0.13662 -0.0202,-0.006 1.44415,0.0808 h -0.01 l 1.99508,0.0264 h 0.002 l 2.23202,0.0418 c 0.20632,0 0.37523,0.34594 0.38048,0.7741 0.004,0.42817 -0.15246,0.78496 -0.35881,0.80825 l -2.22978,0.28543 h -0.01 l -1.99507,0.16122 c -0.018,0 -0.0344,0 -0.0524,-0.004 l -1.44418,-0.18922 c -0.01,0 -0.0248,-0.004 -0.0374,-0.01 l -0.87906,-0.26528 c -0.014,-0.004 -0.027,-0.008 -0.0412,-0.018 l -0.49709,-0.24975 c -0.012,-0.006 -0.0254,-0.014 -0.036,-0.0248 l -0.25639,-0.18622 c -0.0268,-0.018 -0.0522,-0.045 -0.074,-0.0744 l -0.11444,-0.15362 c -0.0292,-0.0372 -0.0538,-0.0776 -0.074,-0.13342 l -0.0374,-0.09 c -0.01,-0.0264 -0.0218,-0.0558 -0.027,-0.0822 l -0.018,-0.062 c -0.0538,-0.19083 -0.0524,-0.42196 0.004,-0.60812 0.0576,-0.18142 0.15985,-0.28544 0.26385,-0.25595 0.10383,0.0218 0.19366,0.16762 0.22948,0.37231 l 0.01,0.0558 -0.0552,-0.16762 0.016,0.0264 -0.0374,-0.0558 0.014,0.018 c 0.01,0.01 0.018,0.018 0.027,0.0326 l 0.008,0.016 c 0.036,0.0588 0.0614,0.14421 0.0666,0.23735 l 0.004,0.0496 c 10e-4,0.0372 -0.002,0.0808 -0.012,0.11782 z"
         style="display:inline;fill:#808080;fill-opacity:1;fill-rule:nonzero;stroke:none;stroke-width:0.10768485"
         id="path3704"
         inkscape:connector-curvature="0" /><path
         d="m 363.9198,474.48407 0.008,0.0526 0.001,0.0372 0.006,0.0746 0.002,0.0294 0.004,0.10081 0.002,0.014 0.004,0.13021 -0.002,-0.018 0.01,0.19383 c 0.004,0.018 0.004,0.0404 0.004,0.0636 l 0.004,0.25286 v 0.0296 l 0.004,0.33509 v 0.0294 l -0.004,0.4809 v -0.008 l -0.004,0.64069 v -0.0296 l 0.006,0.85944 v -0.0218 l 0.0232,1.23951 -0.002,-0.0668 0.077,1.55287 v -0.0264 l 0.11664,1.93138 -0.004,-0.0588 0.19366,2.22303 -0.002,-0.0232 0.24071,2.44643 0.004,0.048 0.18086,2.43246 c 0.029,0.40954 -0.0964,0.79583 -0.29226,0.88114 -0.19367,0.093 -0.38721,-0.14422 -0.44477,-0.53985 l -0.33562,-2.35955 v 0.008 l -0.35356,-2.38748 c -0.004,-0.0326 -0.01,-0.0698 -0.012,-0.10401 l -0.21528,-2.2153 c -0.001,-0.0218 -0.002,-0.0404 -0.004,-0.0636 l -0.12924,-1.92828 -0.002,-0.0558 -0.065,-1.55596 c -0.002,-0.0264 -0.004,-0.0526 -0.004,-0.0822 l -0.004,-1.23951 c 0,-0.0264 0,-0.048 0,-0.0744 l 0.0232,-0.85631 c 0.002,-0.0264 0.004,-0.048 0.004,-0.0744 l 0.0396,-0.63759 c 0.002,-0.0326 0.004,-0.0698 0.01,-0.10401 l 0.0538,-0.4654 c 0.001,-0.0218 0.004,-0.0404 0.008,-0.0588 l 0.0462,-0.32422 c 0.004,-0.0264 0.01,-0.0528 0.014,-0.0776 l 0.0472,-0.23115 10e-4,-0.01 0.0358,-0.18003 c 0.01,-0.0404 0.018,-0.0776 0.0284,-0.11161 l 0.0344,-0.11162 c 0.004,-0.018 0.01,-0.0372 0.016,-0.0512 l 0.0284,-0.0822 -0.016,0.0526 0.0202,-0.0636 c 0.012,-0.045 0.0268,-0.0822 0.0448,-0.11941 l 0.016,-0.0372 c 0.0806,-0.17062 0.20107,-0.23425 0.31245,-0.17062 0.11143,0.0666 0.19726,0.25285 0.22051,0.48713 z"
         style="display:inline;fill:#ed1c24;fill-opacity:1;fill-rule:nonzero;stroke:none;stroke-width:0.10768485"
         id="path3706"
         inkscape:connector-curvature="0" /><path
         d="m 361.05602,486.44999 -0.006,-0.045 c -0.018,-0.15202 -0.016,-0.3118 0.004,-0.46538 l 0.012,-0.0744 v -0.01 l 0.012,-0.0852 c 0.006,-0.0528 0.016,-0.10081 0.0268,-0.15202 l 0.029,-0.12722 -0.008,0.0526 0.0284,-0.15362 c 0.008,-0.0326 0.014,-0.0636 0.0202,-0.0932 l 0.0478,-0.18143 0.006,-0.0234 0.0628,-0.23735 c 0.012,-0.0372 0.0246,-0.0792 0.0388,-0.11642 l 0.0868,-0.24201 c 0.016,-0.045 0.0336,-0.0852 0.0538,-0.12562 l 0.13225,-0.26061 c 0.014,-0.031 0.0292,-0.0558 0.0448,-0.0822 l 0.16146,-0.25286 c 0.018,-0.031 0.0358,-0.0558 0.0538,-0.0744 l 0.20631,-0.25442 c 0.0202,-0.0248 0.0396,-0.0434 0.0612,-0.062 l 0.25791,-0.23115 c 0.0218,-0.018 0.0448,-0.0372 0.0688,-0.048 l 0.30799,-0.18003 c 0.0218,-0.014 0.0396,-0.0216 0.0612,-0.0294 l 0.36776,-0.12562 c 0.016,-0.004 0.0306,-0.008 0.0462,-0.012 l 0.42907,-0.0698 c 0.018,-0.004 0.0374,-0.004 0.0576,-0.004 l 0.49857,0.0264 c 0.018,0 0.0344,0.004 0.0524,0.008 l 0.53447,0.12721 c 0.01,0 0.0218,0.006 0.0322,0.01 l 0.57557,0.20787 c 0.0254,0.01 0.0486,0.0234 0.0716,0.0372 l 0.59426,0.40179 0.0246,0.018 0.55615,0.45144 c 0.024,0.014 0.0448,0.0372 0.065,0.0636 l 0.48589,0.61742 c 0.12404,0.15662 0.17566,0.4685 0.12404,0.74772 -0.0502,0.27926 -0.19066,0.4406 -0.33039,0.39095 l -0.56137,-0.21099 0.01,0.006 -0.58978,-0.18142 h 0.002 l -0.61891,-0.18622 0.016,0.004 -0.58304,-0.13802 0.0248,0.004 -0.53818,-0.0822 0.024,0.002 -0.50084,-0.0294 0.0576,-0.002 -0.42906,0.0636 0.0396,-0.008 -0.36927,0.11482 0.0538,-0.0264 -0.31244,0.16442 0.0538,-0.0342 -0.26385,0.20167 0.059,-0.0558 -0.21155,0.22649 0.0432,-0.0512 -0.17266,0.22649 0.0448,-0.0636 -0.14345,0.23892 0.0486,-0.09 -0.10243,0.21253 0.0434,-0.10401 -0.077,0.22027 0.006,-0.0234 -0.0568,0.16763 0.014,-0.045 -0.0434,0.13802 c -0.01,0.0372 -0.0218,0.0746 -0.0336,0.10401 l -0.0448,0.10862 -0.012,0.034 -0.0306,0.062 c -0.014,0.0372 -0.0322,0.0744 -0.05,0.10541 l -0.0284,0.048 0.016,-0.0294 -0.016,0.0294 c -0.11504,0.21873 -0.27658,0.2932 -0.42383,0.19703 -0.14885,-0.0962 -0.26313,-0.34285 -0.299,-0.65931 z"
         style="display:inline;fill:#ed1c24;fill-opacity:1;fill-rule:nonzero;stroke:none;stroke-width:0.10768485"
         id="path3708"
         inkscape:connector-curvature="0" /></g></g></svg>