<?xml version="1.0" encoding="UTF-8" standalone="no"?>
<!-- Created with Inkscape (http://www.inkscape.org/) -->

<svg
   xmlns:osb="http://www.openswatchbook.org/uri/2009/osb"
   xmlns:dc="http://purl.org/dc/elements/1.1/"
   xmlns:cc="http://creativecommons.org/ns#"
   xmlns:rdf="http://www.w3.org/1999/02/22-rdf-syntax-ns#"
   xmlns:svg="http://www.w3.org/2000/svg"
   xmlns="http://www.w3.org/2000/svg"
   xmlns:sodipodi="http://sodipodi.sourceforge.net/DTD/sodipodi-0.dtd"
   xmlns:inkscape="http://www.inkscape.org/namespaces/inkscape"
   version="1.1"
   id="svg3680"
   xml:space="preserve"
   width="377.95276"
   height="377.95276"
   viewBox="0 0 377.95276 377.95278"
   sodipodi:docname="modification-3.svg"
   inkscape:version="0.92.0 r15299"><metadata
     id="metadata3686"><rdf:RDF><cc:Work
         rdf:about=""><dc:format>image/svg+xml</dc:format><dc:type
           rdf:resource="http://purl.org/dc/dcmitype/StillImage" /><dc:title></dc:title></cc:Work></rdf:RDF></metadata><defs
     id="defs3684"><linearGradient
       inkscape:collect="always"
       id="linearGradient4902"
       osb:paint="gradient"><stop
         style="stop-color:#000000;stop-opacity:1;"
         offset="0"
         id="stop4898" /><stop
         style="stop-color:#000000;stop-opacity:0;"
         offset="1"
         id="stop4900" /></linearGradient><clipPath
       clipPathUnits="userSpaceOnUse"
       id="clipPath3720"><path
         d="m 58.632,719.21 h 103.2 v 11.232 h -103.2 z"
         id="path3718"
         inkscape:connector-curvature="0"
         style="clip-rule:evenodd" /></clipPath><clipPath
       clipPathUnits="userSpaceOnUse"
       id="clipPath3728"><path
         d="m 58.632,719.33 h 103.2 v 11.112 h -103.2 z"
         id="path3726"
         inkscape:connector-curvature="0"
         style="clip-rule:evenodd" /></clipPath><clipPath
       clipPathUnits="userSpaceOnUse"
       id="clipPath3740"><path
         d="m 165.67,719.21 h 44.904 v 11.232 H 165.67 Z"
         id="path3738"
         inkscape:connector-curvature="0"
         style="clip-rule:evenodd" /></clipPath><clipPath
       clipPathUnits="userSpaceOnUse"
       id="clipPath3748"><path
         d="m 165.67,719.33 h 44.904 v 11.112 H 165.67 Z"
         id="path3746"
         inkscape:connector-curvature="0"
         style="clip-rule:evenodd" /></clipPath><clipPath
       clipPathUnits="userSpaceOnUse"
       id="clipPath3760"><path
         d="m 58.632,1.272 h 48.6 V 11.52 h -48.6 z"
         id="path3758"
         inkscape:connector-curvature="0"
         style="clip-rule:evenodd" /></clipPath><clipPath
       clipPathUnits="userSpaceOnUse"
       id="clipPath3768"><path
         d="m 58.632,1.488 h 48.6 V 11.52 h -48.6 z"
         id="path3766"
         inkscape:connector-curvature="0"
         style="clip-rule:evenodd" /></clipPath><clipPath
       clipPathUnits="userSpaceOnUse"
       id="clipPath3776"><path
         d="M 0,1.272 H 555.77 V 11.52 H 0 Z"
         id="path3774"
         inkscape:connector-curvature="0"
         style="clip-rule:evenodd" /></clipPath><clipPath
       clipPathUnits="userSpaceOnUse"
       id="clipPath3784"><path
         d="M 0,1.488 H 555.77 V 11.52 H 0 Z"
         id="path3782"
         inkscape:connector-curvature="0"
         style="clip-rule:evenodd" /></clipPath><clipPath
       clipPathUnits="userSpaceOnUse"
       id="clipPath3796"><path
         d="m 448.61,1.272 h 48.6 V 11.52 h -48.6 z"
         id="path3794"
         inkscape:connector-curvature="0"
         style="clip-rule:evenodd" /></clipPath><clipPath
       clipPathUnits="userSpaceOnUse"
       id="clipPath3804"><path
         d="m 448.61,1.488 h 48.6 V 11.52 h -48.6 z"
         id="path3802"
         inkscape:connector-curvature="0"
         style="clip-rule:evenodd" /></clipPath></defs><sodipodi:namedview
     pagecolor="#ffffff"
     bordercolor="#666666"
     borderopacity="1"
     objecttolerance="10"
     gridtolerance="10"
     guidetolerance="10"
     inkscape:pageopacity="0"
     inkscape:pageshadow="2"
     inkscape:window-width="2736"
     inkscape:window-height="1699"
     id="namedview3682"
     showgrid="false"
     inkscape:zoom="2"
     inkscape:cx="120.97858"
     inkscape:cy="181.99009"
     inkscape:window-x="-13"
     inkscape:window-y="-13"
     inkscape:window-maximized="1"
     inkscape:current-layer="g3690" /><g
     id="g3688"
     inkscape:groupmode="layer"
     inkscape:label="original"
     transform="matrix(1.3333333,0,0,-1.3333333,-298.54444,836.94201)"
     style="display:inline"><g
       id="g3690"
       style="display:inline"><path
         d="m 224.78727,517.36884 0.0794,-0.25649 c 0.19413,-0.43967 0.37944,-0.84272 0.6177,-1.15416 l 0.22944,-0.34809 c 0.34414,-0.56791 0.78535,-0.97095 1.20892,-1.1908 l 0.48533,-0.31144 0.15005,-0.0366 0.59122,-0.31144 c 0.16766,-0.0916 0.3618,-0.12818 0.55594,-0.16487 l 0.67064,-0.14662 h 0.0441 l 0.90889,-0.12817 h 0.13239 l 1.12068,-0.0916 h 0.0617 l 1.43837,-0.0366 h -0.22943 l 1.63249,-0.21984 0.22943,-0.0366 1.88839,-0.0916 v 0 l 2.13548,-0.0916 v 0 l 2.41784,-0.12833 h 0.0617 l 2.90319,-0.055 h 0.0177 3.17674 -0.0177 l 3.4944,-0.0366 h 0.10582 l 3.8562,0.0916 h -0.0441 l 4.27978,0.0916 h 0.0794 l 4.79159,0.25649 h 0.0177 l 5.20632,0.31144 h 0.0706 l 5.50634,0.47632 h -0.0882 l 5.71814,0.2748 h 0.0617 l 6.18579,0.43968 h 0.0617 l 6.33584,0.69617 h 0.0441 l 6.58291,0.78776 h 0.12348 l 6.59173,1.22745 h -0.0441 l 6.67115,1.19079 c 0.12348,0.055 0.2559,0.0916 0.37945,0.12818 l 6.37993,2.41825 0.18531,0.0916 6.06228,3.16938 -0.19413,-0.0916 5.82402,1.85031 c 0.69711,0.21985 1.20892,1.53888 1.1648,2.98618 -0.0177,1.44729 -0.59123,2.63809 -1.31482,2.7297 l -5.86814,0.65951 0.15004,-0.0366 -6.18582,1.61217 h -0.14111 l -6.4417,1.15416 c -0.15005,0.0366 -0.30004,0.0366 -0.44122,0.0366 l -6.67115,-0.34808 h -0.10597 l -6.59173,-0.65952 h -0.0617 l -6.56527,-0.78776 h 0.0441 l -6.35348,-0.62289 h 0.0441 l -6.16817,-0.53128 h 0.0441 l -5.71812,-0.25648 h -0.0617 l -5.50635,-0.47632 h 0.0441 l -5.23279,-0.3664 h -0.0264 l -4.78276,-0.38472 h 0.0617 l -4.27976,-0.21985 h -0.0353 l -3.85621,-0.27479 h 0.10582 l -3.4944,-0.0366 h 0.0177 -3.17675 -0.0177 l -2.90319,-0.0916 h -0.0617 l -2.41785,-0.0916 v 0 l -2.13547,-0.0733 v 0 l -1.8884,-0.0916 h 0.21179 l -1.63251,0.12818 h -0.21177 l -1.43836,-0.0916 h -0.0617 l -1.12069,-0.0916 h -0.13238 l -0.9089,-0.12817 h -0.0441 l -0.67064,-0.12818 0.29121,0.0366 h -0.63536 0.0441 -0.48533 0.0177 -0.27356 -0.21179 l -0.16765,-0.0366 c -1.35893,-0.0916 -2.56787,-1.85033 -3.09732,-4.39683 -0.52946,-2.60145 -0.2912,-5.58762 0.60006,-7.69442 z"
         style="display:inline;fill:#808080;fill-opacity:1;fill-rule:nonzero;stroke:none;stroke-width:1.27146149"
         id="path3692"
         inkscape:connector-curvature="0" /><path
         d="m 301.83388,424.64008 0.30002,-0.21983 v 0 l 0.30002,-0.25649 -0.13239,0.0916 0.30002,-0.21983 -0.48533,0.51296 0.37944,-0.51296 c 0.37945,-0.49463 0.80301,-0.84272 1.24422,-1.02593 l 0.49416,-0.16487 -0.5118,0.25647 0.59124,-0.38472 c 0.30001,-0.21983 0.57356,-0.31142 0.87358,-0.40304 l 0.82067,-0.0916 0.19412,-0.0366 1.03246,-0.055 h 0.0881 l 1.2707,-0.0366 -0.42355,0.0916 1.54424,-0.40304 0.0441,-0.0366 1.99429,-0.43968 c 0.14114,0 0.31766,-0.055 0.48532,0 l 2.30314,0.0916 h -0.0617 l 2.73553,0.0366 h -0.0617 l 3.08848,-0.0366 h 0.10597 l 3.17675,0.12817 h 0.0883 l 3.60031,0.34808 v 0 l 3.76795,0.31145 h 0.0177 l 3.94444,0.43967 h 0.0177 l 4.19152,0.5313 h 0.13239 l 3.9974,0.78775 h 0.0441 l 3.91797,0.82441 c 0.12348,0.055 0.22944,0.055 0.33533,0.14661 l 3.88267,1.66714 c 1.22658,0.53128 2.09135,2.76633 2.04723,5.40442 -0.0617,2.60145 -0.97067,4.74489 -2.22372,5.09297 l -3.91796,1.15416 c -0.12348,0 -0.24709,0.0366 -0.37946,0.0366 l -3.96208,0.18321 h -0.0177 l -4.00622,0.12818 h -0.12347 l -4.19154,-0.12818 h -0.0264 l -3.91797,-0.12818 h -0.10597 l -3.76797,-0.3664 -0.0177,-0.0366 -3.58267,-0.31144 h 0.0883 l -3.17674,-0.12832 h 0.0617 l -3.08849,-0.0366 h -0.13238 l -2.72671,-0.21983 -0.0441,-0.055 -2.31195,-0.25648 h 0.40591 l -1.96782,0.21983 h 0.10597 l -1.57071,0.25648 c -0.10582,0.055 -0.21179,0.055 -0.31768,0.055 l -1.27071,-0.055 h -0.0882 l -1.03245,-0.0366 -0.19412,-0.055 -0.82067,-0.12818 0.69712,-0.0368 -0.63536,0.16489 c -0.31766,0.0916 -0.67946,0.055 -1.01478,-0.0366 l -0.49416,-0.21984 1.08539,0.0916 -0.46769,0.0916 c -0.59123,0.16488 -1.20892,0 -1.75603,-0.49465 l -0.30002,-0.25647 0.13239,0.0916 -0.30002,-0.21985 v 0 l -0.30003,-0.21983 c -1.13833,-0.93433 -1.90604,-3.22434 -1.90604,-5.71586 0,-2.60146 0.76771,-4.83651 1.90604,-5.77084 z"
         style="display:inline;fill:#808080;fill-opacity:1;fill-rule:nonzero;stroke:none;stroke-width:1.27146149"
         id="path3694"
         inkscape:connector-curvature="0" /><path
         d="m 337.08998,531.58524 v -0.25648 c 0.14114,-2.56482 0.98832,-4.67164 2.19724,-5.36778 l 0.37946,-0.21985 0.0881,-0.055 0.63536,-0.34808 -0.40593,0.31144 0.82949,-0.69617 0.21178,-0.18319 0.97067,-0.65952 0.28238,-0.18321 1.60602,-0.78776 c 0.12348,-0.0916 0.27355,-0.12818 0.40593,-0.16488 l 2.11782,-0.58625 0.22943,-0.0366 2.98261,-0.40304 h -0.0177 l 4.27975,-0.56792 0.27356,-0.0366 5.71813,0.0366 h 0.0441 l 7.45651,0.0916 h 0.10597 l 9.00076,0.69617 h 0.0177 l 11.07446,0.97095 v 0 l 12.49518,1.0992 h 0.0441 l 13.7835,1.63049 h 0.0264 l 15.14245,2.01522 h 0.10597 l 16.30726,3.2976 c 1.56189,0.31144 2.72669,3.07778 2.64728,6.33874 -0.0617,3.20603 -1.35893,5.80748 -2.90318,5.80748 l -16.3955,0.16488 h -0.10597 l -15.16011,-0.916 v 0 l -13.80998,-0.87937 h -0.0617 l -12.47753,-1.09921 v 0 l -11.04798,-0.97096 h -0.0441 l -9.00076,-0.91601 0.0794,0.0366 -7.43004,-0.47632 h -0.10597 l -5.71813,-0.62288 h 0.22943 l -4.29742,0.055 h -0.0794 l -2.99143,-0.0916 h 0.15005 l -2.13548,0.0368 h 0.33534 l -1.65014,0.40304 v 0 l -1.04127,0.25647 0.0441,-0.0366 -0.89126,0.25648 c -0.18531,0.055 -0.37945,0.055 -0.59124,0 l -0.67946,-0.0366 c -0.21178,0 -0.44121,-0.0916 -0.67947,-0.21985 l -0.37944,-0.21983 c -0.48535,-0.31145 -0.92654,-0.84274 -1.27071,-1.53889 l -0.10597,-0.18321 c -0.60886,-1.22744 -0.92654,-2.98617 -0.82065,-4.74489 z"
         style="display:inline;fill:#808080;fill-opacity:1;fill-rule:nonzero;stroke:none;stroke-width:1.27146149"
         id="path3698"
         inkscape:connector-curvature="0" /><path
         d="m 344.03511,426.22085 0.23826,-0.25648 -0.81184,1.44729 0.0706,-0.16488 c 0.16766,-0.49465 0.37945,-0.93433 0.63534,-1.28241 l 0.16767,-0.25647 c 0.27355,-0.40304 0.59123,-0.71449 0.90889,-0.93433 l 0.31768,-0.16488 c 0.15004,-0.0916 0.25591,-0.14662 0.40591,-0.18321 l 0.42357,-0.12818 c 0.10597,-0.055 0.22944,-0.0916 0.33533,-0.0916 l 0.78536,-0.0366 -0.16766,0.0366 0.86477,-0.18321 h 0.0441 l 1.01479,-0.16488 h 0.0883 l 1.12068,-0.0916 h 0.27355 l 1.46482,0.0916 0.14114,0.0366 1.61484,0.31144 0.25591,0.0916 1.65015,0.56792 -0.21179,-0.0366 2.01195,0.38472 c 0.95301,0.18321 1.71189,1.72209 1.86191,3.6457 0.15005,1.94193 -0.37945,3.88386 -1.25305,4.67162 l -1.86192,1.63049 c -0.18531,0.12818 -0.36179,0.25648 -0.5471,0.34809 l -1.65015,0.56791 h -0.0264 l -1.58835,0.6229 c -0.15004,0.0366 -0.27356,0.0366 -0.39709,0.0366 l -1.46483,0.18319 0.2559,-0.0916 -1.12067,0.31145 h -0.19413 l -1.01479,0.12817 h 0.0441 l -0.8736,0.12818 c -0.12348,0 -0.22944,0.0366 -0.33533,0 l -0.78536,-0.0366 c -0.10597,0 -0.22943,0 -0.33532,-0.055 l -0.42357,-0.12818 c -0.15005,-0.0366 -0.2559,-0.12818 -0.40591,-0.21985 l -0.31768,-0.12817 c -0.31767,-0.21985 -0.63535,-0.53128 -0.9089,-0.97097 l -0.16767,-0.21983 c -0.25589,-0.34809 -0.46767,-0.78777 -0.63534,-1.31906 l -0.0706,-0.12818 v -0.055 l -0.14114,-0.38472 c -0.42356,-1.19081 -0.60005,-2.69305 -0.45003,-4.08539 0.13238,-1.4656 0.55592,-2.69305 1.1648,-3.44417 z"
         style="display:inline;fill:#808080;fill-opacity:1;fill-rule:nonzero;stroke:none;stroke-width:1.27146149"
         id="path3702"
         inkscape:connector-curvature="0" /><path
         d="m 417.16981,607.55461 -0.10582,0.49466 c -0.16767,0.53127 -0.33532,1.04423 -0.59122,1.41064 l -0.10597,0.21984 c -0.10597,0.12818 -0.21179,0.29312 -0.31768,0.38472 l -0.16766,0.21983 c -0.21178,0.21985 -0.40591,0.34809 -0.61769,0.4397 l -0.22944,0.12817 1.75603,-3.206 -0.10597,0.65951 c -0.5471,3.20603 -2.16194,5.05635 -3.75031,4.36019 -1.606,-0.71449 -2.70904,-3.7373 -2.60315,-7.16316 0.10597,-3.38921 1.4207,-6.08226 3.0532,-6.30211 l 0.39707,-0.0733 h 0.0441 l 0.67947,-0.055 c 0.21179,-0.0366 0.42357,-0.0366 0.63536,0 l 1.58836,0.40304 -0.30002,-0.055 3.20321,0.27481 h 0.10596 l 6.00933,0.75111 h 0.0617 l 10.44794,1.61218 -0.23825,-0.0733 17.0485,0.95264 h -0.10597 l 23.55199,0.31144 h 0.0177 l 26.34929,0.49464 c 2.4355,0 4.42979,4.08538 4.49156,9.14171 0.0617,5.05635 -1.80015,9.26997 -4.23566,9.54478 l -26.3228,3.37088 H 476.707 l -23.552,1.90529 c -0.21177,0 -0.40591,0 -0.6177,-0.055 l -17.04849,-2.23505 c -0.12348,0 -0.29119,-0.055 -0.44121,-0.12818 l -10.37735,-3.13273 c -0.16766,-0.0366 -0.31767,-0.0916 -0.48533,-0.21984 l -5.86814,-2.94954 c -0.15005,-0.0733 -0.30004,-0.16487 -0.42357,-0.29311 l -3.02673,-2.19841 c -0.31768,-0.21985 -0.61769,-0.53129 -0.87361,-0.87936 l -1.3501,-1.81369 c -0.34414,-0.43968 -0.63535,-0.91602 -0.87361,-1.57553 l -0.4412,-1.06256 c -0.10597,-0.31145 -0.25591,-0.65953 -0.31768,-0.97097 l -0.21179,-0.73281 c -0.63534,-2.25337 -0.6177,-4.98306 0.0617,-7.18146 0.67947,-2.14345 1.88841,-3.3709 3.11497,-3.02282 1.22657,0.25648 2.28549,1.97858 2.70905,4.39682 l 0.10597,0.65953 -0.65299,-1.97858 0.18531,0.31144 -0.44122,-0.65951 0.16766,0.21983 c 0.10581,0.12818 0.21178,0.21985 0.31768,0.38473 l 0.10596,0.1832 c 0.42357,0.69615 0.72359,1.70376 0.78537,2.80297 l 0.0441,0.58625 c 0.0177,0.43968 -0.0264,0.95263 -0.13239,1.39232 z"
         style="display:inline;fill:#808080;fill-opacity:1;fill-rule:nonzero;stroke:none;stroke-width:1.27146149"
         id="path3704"
         inkscape:connector-curvature="0" /><path
         d="m 345.31042,350.2799 0.0881,0.62288 0.0177,0.43968 0.0881,0.87936 0.0177,0.34809 0.0617,1.1908 0.0264,0.16489 0.0617,1.53888 -0.0177,-0.21985 0.12347,2.29001 c 0.0441,0.21985 0.0441,0.47632 0.0441,0.75113 l 0.0617,2.98617 v 0.34809 l 0.0441,3.95712 v 0.34808 l -0.0441,5.67923 v -0.0916 l -0.0441,7.56619 v -0.34808 l 0.0883,10.14933 v -0.25649 l 0.27356,14.63775 -0.0177,-0.78776 0.9089,18.3384 v -0.31143 l 1.37657,22.80849 -0.0617,-0.69617 2.28548,26.25266 -0.0264,-0.27479 2.84142,28.89076 0.0441,0.56792 2.13548,28.72588 c 0.34415,4.8365 -1.13833,9.3982 -3.45028,10.40581 -2.28549,1.09921 -4.57097,-1.70377 -5.25044,-6.37539 l -3.9621,-27.86484 v 0.0916 l -4.17389,-28.1946 c -0.0617,-0.38472 -0.10597,-0.8244 -0.15004,-1.22744 l -2.54139,-26.16107 c -0.0177,-0.25649 -0.0353,-0.47633 -0.0617,-0.75112 l -1.52659,-22.77186 -0.0353,-0.65952 -0.76771,-18.37506 c -0.0177,-0.31144 -0.0441,-0.62287 -0.0441,-0.97095 l -0.0617,-14.63775 c 0,-0.31144 0,-0.56791 0,-0.87935 l 0.27355,-10.11269 c 0.0264,-0.31145 0.0441,-0.56791 0.0441,-0.87936 l 0.4677,-7.52955 c 0.0177,-0.38472 0.0617,-0.82441 0.10582,-1.22745 l 0.63536,-5.49603 c 0.0177,-0.25648 0.0617,-0.47631 0.0883,-0.69616 l 0.5471,-3.82889 c 0.0617,-0.31144 0.10596,-0.62289 0.16766,-0.916 l 0.55592,-2.72971 0.0177,-0.12817 0.42357,-2.12512 c 0.10597,-0.47634 0.21179,-0.91601 0.33532,-1.31906 l 0.40592,-1.31903 c 0.0617,-0.21985 0.12347,-0.43969 0.19414,-0.60457 l 0.33532,-0.97097 -0.19413,0.62289 0.23826,-0.75113 c 0.15004,-0.53127 0.31766,-0.97096 0.52945,-1.41065 l 0.18531,-0.43968 c 0.95302,-2.0152 2.37374,-2.76632 3.68854,-2.0152 1.31482,0.78777 2.32962,2.98617 2.60317,5.7525 z"
         style="display:inline;fill:#ed1c24;fill-opacity:1;fill-rule:nonzero;stroke:none;stroke-width:1.27146149"
         id="path3706"
         inkscape:connector-curvature="0" /><path
         d="m 311.50342,491.59009 -0.0706,-0.53127 c -0.21179,-1.79538 -0.18531,-3.68234 0.0441,-5.49603 l 0.13238,-0.87936 v -0.12817 l 0.14114,-1.00762 c 0.0883,-0.62289 0.19414,-1.1908 0.31768,-1.79536 l 0.34416,-1.50225 -0.10597,0.62288 0.33531,-1.81368 c 0.0883,-0.38473 0.16766,-0.75113 0.23826,-1.09921 l 0.56476,-2.14344 0.0706,-0.27481 0.74125,-2.80296 c 0.14114,-0.4397 0.2912,-0.93433 0.45885,-1.37401 l 1.02363,-2.85794 c 0.18531,-0.53127 0.39709,-1.0076 0.63534,-1.48393 l 1.56189,-3.07777 c 0.16766,-0.3664 0.34415,-0.65951 0.52946,-0.97096 l 1.90604,-2.98617 c 0.21178,-0.3664 0.42357,-0.65953 0.63535,-0.87936 l 2.43551,-3.00449 c 0.23824,-0.29312 0.46768,-0.51297 0.72359,-0.73281 l 3.04436,-2.7297 c 0.2559,-0.21983 0.52946,-0.43968 0.81184,-0.56792 l 3.63559,-2.12513 c 0.25592,-0.16488 0.4677,-0.25647 0.72359,-0.34808 l 4.34155,-1.48393 c 0.19414,-0.055 0.36181,-0.0916 0.54711,-0.14661 l 5.06513,-0.82441 c 0.21178,-0.055 0.44122,-0.055 0.67948,-0.055 l 5.88579,0.31144 c 0.21179,0 0.40591,0.055 0.6177,0.0916 l 6.30935,1.50225 c 0.12347,0 0.25589,0.0733 0.37943,0.12818 l 6.79471,2.45489 c 0.30002,0.12818 0.57357,0.27479 0.84713,0.43968 l 7.0153,4.74489 0.29118,0.21985 6.56528,5.33114 c 0.28236,0.16487 0.52945,0.43968 0.76771,0.75112 l 5.73576,7.29139 c 1.46484,1.85033 2.0737,5.53267 1.46484,8.83028 -0.59123,3.29761 -2.25019,5.2029 -3.90033,4.61666 l -6.62703,-2.49153 0.12348,0.0733 -6.96235,-2.14344 h 0.0177 l -7.30649,-2.19841 0.19412,0.0366 -6.88293,-1.63049 0.29121,0.055 -6.35347,-0.97097 0.28237,0.0366 -5.91226,-0.34809 0.67947,-0.0366 -5.06513,0.75112 0.46768,-0.0916 -4.3592,1.3557 0.63536,-0.31145 -3.68854,1.94193 0.63534,-0.40304 -3.11498,2.3816 0.69712,-0.65952 -2.49727,2.67474 0.5118,-0.60457 -2.03839,2.67474 0.52945,-0.75113 -1.69426,2.82128 0.57358,-1.06255 -1.20894,2.50984 0.51182,-1.22744 -0.9089,2.60145 0.0794,-0.2748 -0.67065,1.97856 0.16767,-0.53127 -0.5118,1.63048 c -0.10597,0.43968 -0.25592,0.87938 -0.3971,1.22746 l -0.52947,1.28239 -0.13238,0.40304 -0.36181,0.73281 c -0.16766,0.43968 -0.37944,0.87936 -0.59121,1.24576 l -0.33533,0.56793 0.18531,-0.34808 -0.18531,0.34808 c -1.35895,2.58314 -3.26498,3.46249 -5.00336,2.32665 -1.75603,-1.13584 -3.10614,-4.04874 -3.52971,-7.78604 z"
         style="display:inline;fill:#ed1c24;fill-opacity:1;fill-rule:nonzero;stroke:none;stroke-width:1.27146149"
         id="path3708"
         inkscape:connector-curvature="0" /></g></g></svg>